<svg xmlns="http://www.w3.org/2000/svg" width="1440" height="900" viewBox="0 0 1440 900">
  <!-- Background -->
  <rect width="1440" height="900" fill="#F5F5F5"/>

  <!-- Title bar -->
  <rect x="0" y="0" width="1440" height="36" fill="#2D3748"/>
  <text x="720" y="24" font-family="system-ui" font-size="14" font-weight="bold" fill="white" text-anchor="middle">Main Dashboard — Wireframe</text>

  <!-- Left Sidebar (220px wide, full height below title bar) -->
  <rect x="0" y="36" width="220" height="864" fill="white" stroke="#E0E0E0" stroke-width="1"/>
  <!-- Sidebar header / logo area -->
  <rect x="8" y="44" width="204" height="48" fill="white" stroke="#E0E0E0" stroke-width="1"/>
  <text x="110" y="73" font-family="system-ui" font-size="14" font-weight="bold" fill="#333333" text-anchor="middle">AnalyticsPro Logo</text>

  <!-- Sidebar nav items -->
  <rect x="8" y="104" width="204" height="40" fill="#EBF8FF" stroke="#3b82f6" stroke-width="1"/>
  <text x="40" y="129" font-family="system-ui" font-size="13" fill="#1A365D">● Dashboard (active)</text>

  <rect x="8" y="152" width="204" height="40" fill="white" stroke="#E0E0E0" stroke-width="1"/>
  <text x="40" y="177" font-family="system-ui" font-size="13" fill="#333333">○ Reports</text>

  <rect x="8" y="200" width="204" height="40" fill="white" stroke="#E0E0E0" stroke-width="1"/>
  <text x="40" y="225" font-family="system-ui" font-size="13" fill="#333333">○ Alert Center</text>

  <rect x="8" y="248" width="204" height="40" fill="white" stroke="#E0E0E0" stroke-width="1"/>
  <text x="40" y="273" font-family="system-ui" font-size="13" fill="#333333">○ Settings</text>

  <!-- Sidebar label -->
  <text x="110" y="860" font-family="system-ui" font-size="11" fill="#a1a1aa" text-anchor="middle">Sidebar — Box (nav)</text>

  <!-- Top Header (64px height, starts at x=220) -->
  <rect x="220" y="36" width="1220" height="64" fill="white" stroke="#E0E0E0" stroke-width="1"/>
  <!-- Breadcrumb -->
  <text x="240" y="73" font-family="system-ui" font-size="13" fill="#333333">Home / Dashboard</text>
  <!-- Header right: notification bell + avatar -->
  <rect x="1340" y="48" width="32" height="32" fill="white" stroke="#E0E0E0" stroke-width="1"/>
  <text x="1356" y="68" font-family="system-ui" font-size="16" fill="#333333" text-anchor="middle">🔔</text>
  <!-- Notification badge -->
  <circle cx="1369" cy="50" r="8" fill="#ef4444"/>
  <text x="1369" y="54" font-family="system-ui" font-size="9" fill="white" text-anchor="middle">3</text>
  <!-- Avatar -->
  <circle cx="1410" cy="68" r="20" fill="#e4e4e7" stroke="#E0E0E0" stroke-width="1"/>
  <text x="1410" y="73" font-family="system-ui" font-size="12" fill="#333333" text-anchor="middle">JD</text>
  <text x="830" y="80" font-family="system-ui" font-size="11" fill="#a1a1aa" text-anchor="middle">Header — Box + Avatar.Root + Button (ghost, icon)</text>

  <!-- Content area starts at y=100 (36+64) -->

  <!-- ROW 1: KPI Cards (180px tall, 4 cards) -->
  <!-- Card 1: Revenue -->
  <rect x="228" y="108" width="290" height="160" fill="white" stroke="#E0E0E0" stroke-width="1"/>
  <text x="243" y="130" font-family="system-ui" font-size="11" fill="#71717a">KPI Card — Stat + Card.Root</text>
  <text x="243" y="150" font-family="system-ui" font-size="12" fill="#333333" font-weight="bold">Revenue</text>
  <text x="243" y="182" font-family="system-ui" font-size="28" fill="#333333" font-weight="bold">$2.4M</text>
  <rect x="243" y="196" width="72" height="22" fill="#f0fdf4" stroke="#22c55e" stroke-width="1"/>
  <text x="279" y="211" font-family="system-ui" font-size="11" fill="#22c55e" text-anchor="middle">+12.3%</text>
  <rect x="335" y="218" width="170" height="36" fill="#f4f4f5" stroke="#E0E0E0" stroke-width="1"/>
  <text x="420" y="240" font-family="system-ui" font-size="10" fill="#a1a1aa" text-anchor="middle">sparkline placeholder</text>

  <!-- Card 2: Active Users -->
  <rect x="526" y="108" width="290" height="160" fill="white" stroke="#E0E0E0" stroke-width="1"/>
  <text x="541" y="130" font-family="system-ui" font-size="11" fill="#71717a">KPI Card — Stat + Card.Root</text>
  <text x="541" y="150" font-family="system-ui" font-size="12" fill="#333333" font-weight="bold">Active Users</text>
  <text x="541" y="182" font-family="system-ui" font-size="28" fill="#333333" font-weight="bold">84,210</text>
  <rect x="541" y="196" width="60" height="22" fill="#f0fdf4" stroke="#22c55e" stroke-width="1"/>
  <text x="571" y="211" font-family="system-ui" font-size="11" fill="#22c55e" text-anchor="middle">+5.7%</text>
  <rect x="613" y="218" width="190" height="36" fill="#f4f4f5" stroke="#E0E0E0" stroke-width="1"/>
  <text x="708" y="240" font-family="system-ui" font-size="10" fill="#a1a1aa" text-anchor="middle">sparkline placeholder</text>

  <!-- Card 3: Conversion Rate -->
  <rect x="824" y="108" width="290" height="160" fill="white" stroke="#E0E0E0" stroke-width="1"/>
  <text x="839" y="130" font-family="system-ui" font-size="11" fill="#71717a">KPI Card — Stat + Card.Root</text>
  <text x="839" y="150" font-family="system-ui" font-size="12" fill="#333333" font-weight="bold">Conversion Rate</text>
  <text x="839" y="182" font-family="system-ui" font-size="28" fill="#333333" font-weight="bold">3.42%</text>
  <rect x="839" y="196" width="60" height="22" fill="#fef2f2" stroke="#ef4444" stroke-width="1"/>
  <text x="869" y="211" font-family="system-ui" font-size="11" fill="#ef4444" text-anchor="middle">-0.8%</text>
  <rect x="911" y="218" width="190" height="36" fill="#f4f4f5" stroke="#E0E0E0" stroke-width="1"/>
  <text x="1006" y="240" font-family="system-ui" font-size="10" fill="#a1a1aa" text-anchor="middle">sparkline placeholder</text>

  <!-- Card 4: Churn Rate -->
  <rect x="1122" y="108" width="310" height="160" fill="white" stroke="#E0E0E0" stroke-width="1"/>
  <text x="1137" y="130" font-family="system-ui" font-size="11" fill="#71717a">KPI Card — Stat + Card.Root</text>
  <text x="1137" y="150" font-family="system-ui" font-size="12" fill="#333333" font-weight="bold">Churn Rate</text>
  <text x="1137" y="182" font-family="system-ui" font-size="28" fill="#333333" font-weight="bold">2.1%</text>
  <rect x="1137" y="196" width="60" height="22" fill="#f0fdf4" stroke="#22c55e" stroke-width="1"/>
  <text x="1167" y="211" font-family="system-ui" font-size="11" fill="#22c55e" text-anchor="middle">-0.3%</text>
  <rect x="1209" y="218" width="210" height="36" fill="#f4f4f5" stroke="#E0E0E0" stroke-width="1"/>
  <text x="1314" y="240" font-family="system-ui" font-size="10" fill="#a1a1aa" text-anchor="middle">sparkline placeholder</text>

  <!-- ROW 2: Charts (380px tall) -->
  <!-- Trend Chart (left 2/3 ~813px) -->
  <rect x="228" y="276" width="810" height="370" fill="white" stroke="#E0E0E0" stroke-width="1"/>
  <text x="243" y="297" font-family="system-ui" font-size="11" fill="#71717a">Trend Chart — GAP: recharts</text>
  <text x="633" y="462" font-family="system-ui" font-size="18" fill="#a1a1aa" text-anchor="middle">📈 Line Chart Area</text>
  <text x="633" y="487" font-family="system-ui" font-size="12" fill="#a1a1aa" text-anchor="middle">(recharts LineChart — gap, no Chakra native)</text>
  <!-- Mock axis lines -->
  <line x1="260" y1="612" x2="1010" y2="612" stroke="#E0E0E0" stroke-width="1"/>
  <line x1="260" y1="310" x2="260" y2="612" stroke="#E0E0E0" stroke-width="1"/>
  <!-- Mock data line -->
  <polyline points="260,560 360,510 460,530 560,480 660,440 760,420 860,390 960,370 1010,355" fill="none" stroke="#3b82f6" stroke-width="2"/>

  <!-- Donut Chart (right 1/3 ~400px) -->
  <rect x="1046" y="276" width="386" height="370" fill="white" stroke="#E0E0E0" stroke-width="1"/>
  <text x="1061" y="297" font-family="system-ui" font-size="11" fill="#71717a">Distribution Chart — GAP: recharts</text>
  <text x="1239" y="462" font-family="system-ui" font-size="18" fill="#a1a1aa" text-anchor="middle">🍩</text>
  <text x="1239" y="487" font-family="system-ui" font-size="12" fill="#a1a1aa" text-anchor="middle">Donut Chart Area</text>
  <text x="1239" y="507" font-family="system-ui" font-size="11" fill="#a1a1aa" text-anchor="middle">(recharts PieChart — gap)</text>
  <!-- Mock donut ring -->
  <circle cx="1239" cy="430" r="70" fill="none" stroke="#e4e4e7" stroke-width="28"/>
  <circle cx="1239" cy="430" r="70" fill="none" stroke="#3b82f6" stroke-width="28" stroke-dasharray="176 264" stroke-dashoffset="0"/>
  <circle cx="1239" cy="430" r="70" fill="none" stroke="#22c55e" stroke-width="28" stroke-dasharray="88 352" stroke-dashoffset="-176"/>
  <circle cx="1239" cy="430" r="70" fill="none" stroke="#f97316" stroke-width="28" stroke-dasharray="44 396" stroke-dashoffset="-264"/>

  <!-- ROW 3: Filters (60px tall) -->
  <rect x="228" y="654" width="1204" height="60" fill="white" stroke="#E0E0E0" stroke-width="1"/>
  <text x="243" y="672" font-family="system-ui" font-size="11" fill="#71717a">Filters — Menu + Input + Button</text>
  <!-- Date range buttons -->
  <rect x="243" y="679" width="48" height="28" fill="#eff6ff" stroke="#3b82f6" stroke-width="1"/>
  <text x="267" y="697" font-family="system-ui" font-size="12" fill="#3b82f6" text-anchor="middle">7D</text>
  <rect x="299" y="679" width="48" height="28" fill="white" stroke="#E0E0E0" stroke-width="1"/>
  <text x="323" y="697" font-family="system-ui" font-size="12" fill="#333333" text-anchor="middle">30D</text>
  <rect x="355" y="679" width="48" height="28" fill="white" stroke="#E0E0E0" stroke-width="1"/>
  <text x="379" y="697" font-family="system-ui" font-size="12" fill="#333333" text-anchor="middle">90D</text>
  <rect x="411" y="679" width="72" height="28" fill="white" stroke="#E0E0E0" stroke-width="1"/>
  <text x="447" y="697" font-family="system-ui" font-size="12" fill="#333333" text-anchor="middle">Custom</text>
  <!-- Metric selector -->
  <rect x="510" y="679" width="180" height="28" fill="white" stroke="#E0E0E0" stroke-width="1"/>
  <text x="595" y="697" font-family="system-ui" font-size="12" fill="#71717a" text-anchor="middle">Metric: Revenue ▾</text>

  <!-- ROW 4: Recent Events Table (fills remaining space ~130px) -->
  <rect x="228" y="722" width="1204" height="142" fill="white" stroke="#E0E0E0" stroke-width="1"/>
  <text x="243" y="740" font-family="system-ui" font-size="11" fill="#71717a">Recent Events — Table</text>
  <!-- Table header -->
  <rect x="228" y="748" width="1204" height="28" fill="#f4f4f5" stroke="#E0E0E0" stroke-width="1"/>
  <text x="270" y="766" font-family="system-ui" font-size="12" fill="#333333" font-weight="bold">Date</text>
  <text x="420" y="766" font-family="system-ui" font-size="12" fill="#333333" font-weight="bold">Event</text>
  <text x="700" y="766" font-family="system-ui" font-size="12" fill="#333333" font-weight="bold">Metric</text>
  <text x="950" y="766" font-family="system-ui" font-size="12" fill="#333333" font-weight="bold">Value</text>
  <text x="1150" y="766" font-family="system-ui" font-size="12" fill="#333333" font-weight="bold">Status</text>
  <!-- Table rows -->
  <line x1="228" y1="776" x2="1432" y2="776" stroke="#E0E0E0" stroke-width="1"/>
  <text x="270" y="796" font-family="system-ui" font-size="12" fill="#333333">2026-06-17</text>
  <text x="420" y="796" font-family="system-ui" font-size="12" fill="#333333">Campaign Launch</text>
  <text x="700" y="796" font-family="system-ui" font-size="12" fill="#333333">Revenue</text>
  <text x="950" y="796" font-family="system-ui" font-size="12" fill="#333333">$124K</text>
  <rect x="1130" y="782" width="56" height="20" fill="#f0fdf4" stroke="#22c55e" stroke-width="1"/>
  <text x="1158" y="796" font-family="system-ui" font-size="11" fill="#22c55e" text-anchor="middle">Success</text>
  <line x1="228" y1="804" x2="1432" y2="804" stroke="#E0E0E0" stroke-width="1"/>
  <text x="270" y="824" font-family="system-ui" font-size="12" fill="#333333">2026-06-16</text>
  <text x="420" y="824" font-family="system-ui" font-size="12" fill="#333333">Threshold Alert</text>
  <text x="700" y="824" font-family="system-ui" font-size="12" fill="#333333">Churn</text>
  <text x="950" y="824" font-family="system-ui" font-size="12" fill="#333333">2.4%</text>
  <rect x="1130" y="810" width="56" height="20" fill="#fff7ed" stroke="#f97316" stroke-width="1"/>
  <text x="1158" y="824" font-family="system-ui" font-size="11" fill="#f97316" text-anchor="middle">Warning</text>
  <line x1="228" y1="832" x2="1432" y2="832" stroke="#E0E0E0" stroke-width="1"/>
  <text x="270" y="852" font-family="system-ui" font-size="12" fill="#333333">2026-06-15</text>
  <text x="420" y="852" font-family="system-ui" font-size="12" fill="#333333">User Spike</text>
  <text x="700" y="852" font-family="system-ui" font-size="12" fill="#333333">Active Users</text>
  <text x="950" y="852" font-family="system-ui" font-size="12" fill="#333333">+2,100</text>
  <rect x="1130" y="838" width="56" height="20" fill="#eff6ff" stroke="#3b82f6" stroke-width="1"/>
  <text x="1158" y="852" font-family="system-ui" font-size="11" fill="#3b82f6" text-anchor="middle">Info</text>
</svg>
